<svg width="860" height="240" viewBox="0 0 860 240" fill="none" xmlns="http://www.w3.org/2000/svg">
  <defs>
    <linearGradient id="v38p-ink" x1="42" y1="22" x2="744" y2="202" gradientUnits="userSpaceOnUse">
      <stop stop-color="#F4F3EE"/>
      <stop offset="0.5" stop-color="#E9E6DA"/>
      <stop offset="1" stop-color="#D8E0E8"/>
    </linearGradient>
    <linearGradient id="v38p-accent" x1="82" y1="38" x2="566" y2="182" gradientUnits="userSpaceOnUse">
      <stop stop-color="#D7EAA3"/>
      <stop offset="0.44" stop-color="#B8D56E"/>
      <stop offset="0.8" stop-color="#32D9FF"/>
      <stop offset="1" stop-color="#DDD7FF"/>
    </linearGradient>
    <filter id="v38p-shadow" x="0" y="0" width="860" height="240" filterUnits="userSpaceOnUse" color-interpolation-filters="sRGB">
      <feFlood flood-opacity="0" result="BackgroundImageFix"/>
      <feColorMatrix in="SourceAlpha" type="matrix" values="0 0 0 0 0 0 0 0 0 0 0 0 0 0 0 0 0 0 127 0" result="hardAlpha"/>
      <feOffset dy="8"/>
      <feGaussianBlur stdDeviation="10"/>
      <feComposite in2="hardAlpha" operator="out"/>
      <feColorMatrix type="matrix" values="0 0 0 0 0.04 0 0 0 0 0.06 0 0 0 0 0.1 0 0 0 0.34 0"/>
      <feBlend mode="normal" in2="BackgroundImageFix" result="effect1_dropShadow_1_1"/>
      <feBlend mode="normal" in="SourceGraphic" in2="effect1_dropShadow_1_1" result="shape"/>
    </filter>
    <clipPath id="v38p-clip">
      <circle cx="142" cy="120" r="88"/>
    </clipPath>
  </defs>

  <g filter="url(#v38p-shadow)">
    <circle cx="142" cy="120" r="88" stroke="#FFFFFF" stroke-opacity="0.12" stroke-width="3"/>
    <circle cx="142" cy="120" r="76" stroke="#FFFFFF" stroke-opacity="0.08" stroke-width="2" stroke-dasharray="5 9"/>
    <circle cx="142" cy="120" r="62" stroke="#FFFFFF" stroke-opacity="0.06" stroke-width="1.8"/>

    <g clip-path="url(#v38p-clip)">
      <path d="M56 72H228M56 96H228M56 120H228M56 144H228M56 168H228" stroke="#FFFFFF" stroke-opacity="0.048" stroke-width="1.5"/>
      <path d="M78 44V196M102 44V196M126 44V196M150 44V196M174 44V196M198 44V196" stroke="#FFFFFF" stroke-opacity="0.04" stroke-width="1.5"/>
      <g transform="translate(80 136) scale(0.078 -0.078)" fill="url(#v38p-ink)"><path d="M693 264 683 243 679 210 669 201Q663 161 638 150L631 147L571 105L553 95L524 63L506 66L495 58L475 51L425 25Q419 27 409 34Q402 24 387 21H383L363 5L359 7H340L331 0L293 1L243 -7H237Q230 -7 220 -9L192 -5L187 0L147 6L130 14H106V25L87 45L62 56L51 87L50 110L44 117L43 162L56 202L54 226L59 231V250L73 264V274L79 285V295L83 300L78 311L94 322L113 362L154 421L164 426Q167 431 173 439L183 447V463L198 466Q213 478 231 484L236 490Q245 494 288 500L315 504L347 500L366 501H393L399 500L402 499H407L413 501L445 500L443 494L458 490Q464 492 464 498Q469 489 486 489L494 481H524L591 452L599 430L605 421L623 414L650 370L666 350Q693 287 693 275ZM618 258 613 286 618 294 611 311Q612 313 612 317Q612 320 610 322L592 334L586 350L578 353L575 367L550 390L535 402L529 399Q506 420 444 434Q436 434 434 435L429 432L411 437L401 432Q386 437 383 437Q382 437 375.5 435.0Q369 433 364 433Q359 433 356 434Q349 421 323 411L310 413L296 406L278 408Q260 394 236 379L231 372L226 350L203 340L199 335Q193 323 183 313V296L169 290L166 288L157 258L143 250Q140 199 126 179Q118 168 117 149L113 138L116 131L119 116L131 103L133 90L143 80Q171 64 193 63L235 74L244 65H256L258 67L288 72L320 67Q328 75 339 75Q362 89 378 89L399 101L415 102L428 112L459 113Q463 114 468 114L470 117Q477 127 491 130L503 158L511 153L519 157L533 170L538 168L555 180L585 210L598 214L604 229L612 234L610 243Z" transform="translate(0,0)"/></g>
      <path d="M126 82L126 112L126 146" stroke="url(#v38p-accent)" stroke-width="4.8" stroke-linecap="round"/>
      <path d="M126 112L148 98L170 102L188 120L188 146" stroke="url(#v38p-accent)" stroke-width="4.8" stroke-linecap="round" stroke-linejoin="round"/>
      <circle cx="126" cy="82" r="5.5" fill="#D7EAA3"/>
      <circle cx="126" cy="112" r="5.5" fill="#B8D56E"/>
      <circle cx="126" cy="146" r="5.5" fill="#D7EAA3"/>
      <circle cx="148" cy="98" r="5" fill="#F4F3EE"/>
      <circle cx="170" cy="102" r="5" fill="#F4F3EE"/>
      <circle cx="188" cy="120" r="5.5" fill="#32D9FF"/>
      <circle cx="188" cy="146" r="5.5" fill="#DDD7FF"/>
      <path d="M126 62V70M188 62V70M106 112H114M198 112H206" stroke="#FFFFFF" stroke-opacity="0.16" stroke-width="2" stroke-linecap="round"/>
      <path d="M96 160L108 160M196 160L208 160" stroke="#FFFFFF" stroke-opacity="0.1" stroke-width="1.8" stroke-linecap="round"/>
    </g>

    <path d="M240 120H258" stroke="#FFFFFF" stroke-opacity="0.14" stroke-width="2.5" stroke-linecap="round"/>
    <g transform="translate(274 164) scale(0.124 -0.124)" fill="url(#v38p-ink)"><path d="M468 10Q468 -30 425 -30Q404 -30 394 -13Q384 1 377 40V54Q380 59 380 64Q380 66 379 69L365 90L375 109L371 130L375 142V155L377 167L373 185L377 194V227L378 270L371 303L375 315L368 340L360 333L338 324L308 286L296 287L278 258L275 246L264 241L253 224L248 213L237 178L219 156L215 142L205 134L201 110L181 92L178 55H169L166 49L148 18L131 0L116 -20L100 -15H87L75 1L64 37L62 90L59 107L62 127L60 174L68 176L73 245L77 258L74 279L79 282L83 314L87 325L83 339L86 344L84 347L87 375L79 382L86 396L85 425L74 454L82 463L75 490V506L72 513L67 545L62 560L47 589L58 603L68 620H77Q99 620 110 604L124 593L130 575L145 562L142 548L149 527L148 525L150 523L149 490L150 446L157 418L152 406L154 389L149 375L152 351L147 331L149 327L147 266L150 252L144 245L141 212L137 197L141 170L137 162L136 142Q147 145 147 154L155 162L162 175L164 194L175 210L181 230L196 246L200 265L210 266V275L211 287L223 294V302L233 304L235 320L234 328L252 336L257 340L255 350L264 353L271 370H283L294 377Q294 384 295 387L306 392Q324 407 340 410V412Q366 425 376 425Q391 425 403 411Q414 407 417 396L426 390L429 376L444 353V273L443 238L447 229V155L444 142V122L447 100L443 81Q447 66 448 56L459 45V37L463 34Q468 17 468 10Z" transform="translate(0,0)"/><path d="M410 647Q410 627 389 612L385 607L374 598Q369 584 347 575Q335 574 335 534L326 536Q308 521 299 500Q294 486 287 477V467L276 450L275 434L262 411V401L255 376Q245 340 245 308Q245 298 246 294L249 281L244 273L248 265L243 255L247 244L243 219L250 195L258 162L267 113L272 105L271 100Q282 91 282 80Q282 79 282 77Q281 75 281 74L287 60L301 45L311 19Q318 12 319 6L326 -9H345V-17Q345 -52 381 -79V-96Q381 -122 345 -131L326 -136L302 -128L297 -115L291 -110L264 -73L246 -38L225 -9L228 1L215 27V30L207 34Q206 52 192 76V77Q192 80 184 118L178 129V143Q177 141 175 133L171 195V218L165 243L168 250Q165 259 165 263Q165 258 171 298L162 325L171 340L176 392H183L186 406L193 440L202 460L215 480L220 501L229 522L244 544L255 549Q271 590 309 615L312 617L315 626L332 633L343 644L352 658L379 670Q410 669 410 647Z" transform="translate(533,0)"/><path d="M682 162Q682 154 669 141L658 124L654 104L645 101L643 95Q627 90 620 70Q609 56 596 50Q591 45 587 43L582 34L573 32L547 18L513 14L504 16L489 13L483 20Q469 27 463 34Q451 37 445 53Q428 73 428 85V88L421 100L419 102L413 120L404 139L406 162L396 175L381 261Q378 278 378 290L376 295L371 302L362 290L326 252L313 231L306 217L295 201L287 193L288 188L274 157L266 147L256 145L247 136Q247 116 228 110L226 108Q217 86 206 81L197 67Q175 47 168 42Q165 32 157 25Q155 22 150 17Q147 0 122 -7L111 -10Q91 -9 78 13L63 38L68 62L66 75L68 77L69 90L58 114L66 126L62 139L69 153L71 176L67 180L75 194L72 201L71 217L75 247Q73 257 73 260Q73 262 74 264Q74 267 74 268L69 276L72 308L71 319L74 335L70 362L88 392Q119 387 131.0 378.5Q143 370 143 348V339L150 327L147 306L151 266L144 247L147 226V209L139 198L145 180L139 169L138 158L144 147L136 126L133 117V108L138 98L155 115Q155 130 165 135Q166 145 173 150L170 153L183 165L186 169V178L202 190L206 200L215 206L254 250Q249 244 221 213V211L223 218L236 233L245 250V260L260 265L262 278L266 282L267 287V294L281 308Q281 310 281 313Q280 316 280 317Q280 335 300 337Q309 355 327 358L333 367L335 369Q344 382 362 387L371 398H395L407 384L418 378L419 375L426 373L428 352L445 342L438 320L449 296V268L457 230L459 194L468 173L474 147Q480 141 483 130L501 125V105L511 94V91L515 90L519 84L523 89Q521 89 528 88Q539 88 551 108L563 111L566 116Q569 124 578 128L585 127L589 131L590 136L593 140Q603 147 606 161L617 173L619 182L626 198L645 205L672 196L681 167Q681 166 682 165Q682 163 682 162Z" transform="translate(951,0)"/><path d="M396 234 390 216Q390 190 387 175L381 165V154L376 147L373 133L362 122L355 97L347 94L343 83L331 76L323 59L311 53L310 41L291 34Q278 16 259 11L255 10Q241 -11 218 -11Q208 -17 195 -17L185 -24L175 -27L162 -37L149 -36L135 -40L118 -33L75 -30L60 -7L38 16L43 32L28 66L35 79L30 103L35 118Q33 132 33 138Q33 157 43 166Q44 176 56 199H61L59 206L62 220V235Q70 244 71 247L68 261V265Q75 279 75 294L96 323Q96 323 98.5 325.0Q101 327 103 329L102 333H106L121 350L122 373L147 382Q161 391 165 412H178Q189 418 198 418Q207 418 215 414L226 413L252 423L266 410L277 403H285L300 395H308Q321 383 338 362L340 357L347 353L368 326L387 279V269ZM330 210 329 215Q322 222 321 230L324 235L315 254L317 273L313 278Q300 288 299 294Q290 298 290 314L284 315L272 335L263 342L242 350L234 352Q228 352 226 356L206 334L193 306L172 295L169 284L159 279L155 253L143 247Q139 233 139 221L123 206L128 203Q128 191 119 182Q116 173 111 162V154L108 150L109 138L98 111L100 106V78L96 64L97 50L106 37L120 32L125 30L133 34L159 32L163 42H167Q173 42 174 39L183 42L191 39L204 48L206 51L215 53Q222 64 248 75L250 80L270 94L281 110L297 118L298 123L303 134V147L315 157L319 164L324 170Q320 182 320 187Q320 196 326 206Z" transform="translate(1621,0)"/><path d="M282 211 273 196 268 144H261L259 130L251 96L243 76L229 56L224 35L215 14L200 -8L190 -12Q174 -53 135 -79L132 -81L130 -90L112 -97L102 -108L92 -122L65 -134Q47 -133 41.0 -129.0Q35 -125 35 -109Q35 -92 55 -76L59 -71L71 -62Q75 -47 97 -38Q110 -37 110 2L118 0Q135 13 146 36Q150 50 157 59V69L168 86L169 102L182 125V135L190 160Q200 207 200 231Q200 239 199 242L195 255L200 263L196 271L201 281L198 292L202 317L194 341L177 423L172 431L173 436Q162 445 162 456Q162 457 163 459Q163 461 163 462L158 476L143 491L133 517Q126 522 125 530L119 546H99V555Q99 588 63 615V632Q63 658 99 667L119 672L143 664L147 651L153 647L180 610L199 575L219 546L216 535L229 509L230 506L237 502Q242 477 252 460V458Q252 458 260 418L266 407V393Q266 388 269 403L274 341V318L279 293L276 287Q279 278 279 273Q279 269 274 237Z" transform="translate(2048,0)"/></g>
    <path d="M336 92L390 74L446 76L504 58L562 60" stroke="url(#v38p-accent)" stroke-width="3.9" stroke-linecap="round" stroke-linejoin="round" opacity="0.84"/>
    <circle cx="390" cy="74" r="4" fill="#D7EAA3"/>
    <circle cx="504" cy="58" r="4.5" fill="#32D9FF"/>
    <path d="M274 184C356 196 454 194 568 178" stroke="#FFFFFF" stroke-opacity="0.1" stroke-width="2.4" stroke-linecap="round"/>
  </g>
</svg>
