<svg width="860" height="240" viewBox="0 0 860 240" fill="none" xmlns="http://www.w3.org/2000/svg">
  <defs>
    <linearGradient id="v38-ink" x1="44" y1="28" x2="742" y2="198" gradientUnits="userSpaceOnUse">
      <stop stop-color="#F4F3EE"/>
      <stop offset="0.54" stop-color="#E9E6DA"/>
      <stop offset="1" stop-color="#D8E0E8"/>
    </linearGradient>
    <linearGradient id="v38-accent" x1="90" y1="40" x2="318" y2="166" gradientUnits="userSpaceOnUse">
      <stop stop-color="#D7EAA3"/>
      <stop offset="0.48" stop-color="#B8D56E"/>
      <stop offset="1" stop-color="#32D9FF"/>
    </linearGradient>
    <filter id="v38-shadow" x="0" y="0" width="860" height="240" filterUnits="userSpaceOnUse" color-interpolation-filters="sRGB">
      <feFlood flood-opacity="0" result="BackgroundImageFix"/>
      <feColorMatrix in="SourceAlpha" type="matrix" values="0 0 0 0 0 0 0 0 0 0 0 0 0 0 0 0 0 0 127 0" result="hardAlpha"/>
      <feOffset dy="8"/>
      <feGaussianBlur stdDeviation="10"/>
      <feComposite in2="hardAlpha" operator="out"/>
      <feColorMatrix type="matrix" values="0 0 0 0 0.04 0 0 0 0 0.06 0 0 0 0 0.1 0 0 0 0.34 0"/>
      <feBlend mode="normal" in2="BackgroundImageFix" result="effect1_dropShadow_1_1"/>
      <feBlend mode="normal" in="SourceGraphic" in2="effect1_dropShadow_1_1" result="shape"/>
    </filter>
    <clipPath id="v38-seal-clip">
      <circle cx="140" cy="120" r="86"/>
    </clipPath>
  </defs>

  <g filter="url(#v38-shadow)">
    <circle cx="140" cy="120" r="86" stroke="#FFFFFF" stroke-opacity="0.12" stroke-width="3"/>
    <circle cx="140" cy="120" r="74" stroke="#FFFFFF" stroke-opacity="0.08" stroke-width="2" stroke-dasharray="5 8"/>
    <g clip-path="url(#v38-seal-clip)">
      <path d="M54 68H226M54 92H226M54 116H226M54 140H226M54 164H226" stroke="#FFFFFF" stroke-opacity="0.06" stroke-width="1.6"/>
      <path d="M78 44V196M102 44V196M126 44V196M150 44V196M174 44V196M198 44V196" stroke="#FFFFFF" stroke-opacity="0.05" stroke-width="1.6"/>
      <path d="M104 78L104 112L104 146" stroke="url(#v38-accent)" stroke-width="4.8" stroke-linecap="round"/>
      <path d="M104 112L126 98L148 102L164 118L164 146" stroke="url(#v38-accent)" stroke-width="4.8" stroke-linecap="round" stroke-linejoin="round"/>
      <circle cx="104" cy="78" r="5.5" fill="#D7EAA3"/>
      <circle cx="104" cy="112" r="5.5" fill="#B8D56E"/>
      <circle cx="104" cy="146" r="5.5" fill="#D7EAA3"/>
      <circle cx="126" cy="98" r="5" fill="#F4F3EE"/>
      <circle cx="148" cy="102" r="5" fill="#F4F3EE"/>
      <circle cx="164" cy="118" r="5.5" fill="#32D9FF"/>
      <circle cx="164" cy="146" r="5.5" fill="#DDD7FF"/>
      <text x="78" y="134" fill="url(#v38-ink)" font-family="Bradley Hand, Segoe Print, Kalam, Patrick Hand, cursive" font-size="78" font-style="italic" font-weight="400">O</text>
    </g>
    <text x="256" y="162" fill="url(#v38-ink)" font-family="Bradley Hand, Segoe Print, Kalam, Patrick Hand, cursive" font-size="124" font-style="italic" font-weight="400">h(no)</text>
    <path d="M226 122H244" stroke="#FFFFFF" stroke-opacity="0.14" stroke-width="2.5" stroke-linecap="round"/>
    <path d="M318 90L364 74L418 76L472 58L536 60" stroke="url(#v38-accent)" stroke-width="3.8" stroke-linecap="round" stroke-linejoin="round" opacity="0.82"/>
    <circle cx="364" cy="74" r="4" fill="#D7EAA3"/>
    <circle cx="472" cy="58" r="4.5" fill="#32D9FF"/>
    <path d="M248 182C328 194 424 194 540 178" stroke="#FFFFFF" stroke-opacity="0.1" stroke-width="2.5" stroke-linecap="round"/>
  </g>
</svg>
