<svg width="512" height="512" viewBox="0 0 512 512" fill="none" xmlns="http://www.w3.org/2000/svg">
  <defs>
    <linearGradient id="icon-ink" x1="82" y1="64" x2="394" y2="418" gradientUnits="userSpaceOnUse">
      <stop stop-color="#F4F3EE"/>
      <stop offset="0.52" stop-color="#E9E6DA"/>
      <stop offset="1" stop-color="#D8E0E8"/>
    </linearGradient>
    <linearGradient id="icon-accent" x1="132" y1="106" x2="332" y2="344" gradientUnits="userSpaceOnUse">
      <stop stop-color="#D7EAA3"/>
      <stop offset="0.44" stop-color="#B8D56E"/>
      <stop offset="0.8" stop-color="#32D9FF"/>
      <stop offset="1" stop-color="#DDD7FF"/>
    </linearGradient>
    <filter id="icon-shadow" x="0" y="0" width="512" height="512" filterUnits="userSpaceOnUse" color-interpolation-filters="sRGB">
      <feFlood flood-opacity="0" result="BackgroundImageFix"/>
      <feColorMatrix in="SourceAlpha" type="matrix" values="0 0 0 0 0 0 0 0 0 0 0 0 0 0 0 0 0 0 127 0" result="hardAlpha"/>
      <feOffset dy="18"/>
      <feGaussianBlur stdDeviation="18"/>
      <feComposite in2="hardAlpha" operator="out"/>
      <feColorMatrix type="matrix" values="0 0 0 0 0.035 0 0 0 0 0.05 0 0 0 0 0.09 0 0 0 0.32 0"/>
      <feBlend mode="normal" in2="BackgroundImageFix" result="effect1_dropShadow_1_1"/>
      <feBlend mode="normal" in="SourceGraphic" in2="effect1_dropShadow_1_1" result="shape"/>
    </filter>
    <clipPath id="icon-clip">
      <circle cx="256" cy="256" r="182"/>
    </clipPath>
  </defs>

  <g filter="url(#icon-shadow)">
    <circle cx="256" cy="256" r="182" stroke="#FFFFFF" stroke-opacity="0.12" stroke-width="8"/>
    <circle cx="256" cy="256" r="156" stroke="#FFFFFF" stroke-opacity="0.08" stroke-width="5" stroke-dasharray="12 16"/>
    <circle cx="256" cy="256" r="126" stroke="#FFFFFF" stroke-opacity="0.05" stroke-width="4"/>

    <g clip-path="url(#icon-clip)">
      <path d="M88 156H424M88 204H424M88 252H424M88 300H424M88 348H424" stroke="#FFFFFF" stroke-opacity="0.05" stroke-width="3"/>
      <path d="M124 92V420M172 92V420M220 92V420M268 92V420M316 92V420M364 92V420" stroke="#FFFFFF" stroke-opacity="0.04" stroke-width="3"/>
      <text x="144" y="300" fill="url(#icon-ink)" font-family="Bradley Hand, Segoe Print, Kalam, Patrick Hand, cursive" font-size="160" font-style="italic" font-weight="400">O</text>
      <path d="M226 176L226 238L226 310" stroke="url(#icon-accent)" stroke-width="11" stroke-linecap="round"/>
      <path d="M226 238L268 214L308 222L342 258L342 312" stroke="url(#icon-accent)" stroke-width="11" stroke-linecap="round" stroke-linejoin="round"/>
      <circle cx="226" cy="176" r="12" fill="#D7EAA3"/>
      <circle cx="226" cy="238" r="12" fill="#B8D56E"/>
      <circle cx="226" cy="310" r="12" fill="#D7EAA3"/>
      <circle cx="268" cy="214" r="10" fill="#F4F3EE"/>
      <circle cx="308" cy="222" r="10" fill="#F4F3EE"/>
      <circle cx="342" cy="258" r="12" fill="#32D9FF"/>
      <circle cx="342" cy="312" r="12" fill="#DDD7FF"/>
    </g>
  </g>
</svg>
