<svg width="64" height="64" viewBox="0 0 64 64" fill="none" xmlns="http://www.w3.org/2000/svg">
  <defs>
    <linearGradient id="tab-bg" x1="8" y1="4" x2="58" y2="60" gradientUnits="userSpaceOnUse">
      <stop stop-color="#121826"/>
      <stop offset="1" stop-color="#1B202C"/>
    </linearGradient>
    <linearGradient id="tab-h" x1="28" y1="18" x2="50" y2="43" gradientUnits="userSpaceOnUse">
      <stop stop-color="#D7EAA3"/>
      <stop offset="0.6" stop-color="#7ADFFF"/>
      <stop offset="1" stop-color="#C8BAFF"/>
    </linearGradient>
    <radialGradient id="tab-glow" cx="0" cy="0" r="1" gradientUnits="userSpaceOnUse" gradientTransform="translate(39 29) rotate(135) scale(24)">
      <stop stop-color="#7ADFFF" stop-opacity="0.22"/>
      <stop offset="1" stop-color="#7ADFFF" stop-opacity="0"/>
    </radialGradient>
  </defs>

  <rect x="1" y="1" width="62" height="62" rx="15" fill="url(#tab-bg)"/>
  <rect x="1.5" y="1.5" width="61" height="61" rx="14.5" stroke="#FFFFFF" stroke-opacity="0.08"/>
  <rect x="1" y="1" width="62" height="62" rx="15" fill="url(#tab-glow)"/>

  <ellipse cx="22.5" cy="32.5" rx="10.8" ry="12.6" stroke="#F4F3EE" stroke-width="4.4"/>

  <path d="M31.5 18.5V31.2V46" stroke="url(#tab-h)" stroke-width="4.1" stroke-linecap="round"/>
  <path d="M31.5 31.2L38.5 26.2L44.7 27.3L50.3 34.2L50.3 46" stroke="url(#tab-h)" stroke-width="4.1" stroke-linecap="round" stroke-linejoin="round"/>

  <circle cx="31.5" cy="18.5" r="2.6" fill="#D7EAA3"/>
  <circle cx="31.5" cy="31.2" r="2.6" fill="#B8D56E"/>
  <circle cx="31.5" cy="46" r="2.6" fill="#D7EAA3"/>
  <circle cx="38.5" cy="26.2" r="2.2" fill="#F4F3EE"/>
  <circle cx="44.7" cy="27.3" r="2.2" fill="#F4F3EE"/>
  <circle cx="50.3" cy="34.2" r="2.4" fill="#7ADFFF"/>
  <circle cx="50.3" cy="46" r="2.4" fill="#C8BAFF"/>
</svg>
